:SAMPLES-PER-SECOND 30
:FULLY-SPECIFIED
:DEGREES
666
root  -59.9788 40.4544 -3.03328 -13.9016 -78.6436 15.0579
RightUpLeg  -13.5933 -7.82003 -4.20441
RightLeg  5.53114 11.8325 1.26318
RightFoot  6.225 -0.15461 1.27601
RightToes  -2.21189e-009 0 -3.6325e-017
Spine  17.4423 -1.93383 5.9704
Spine1  6.5527 0.226447 -6.33264
HEad  -22.0177 -2.05291 -4.66595
LeftShoulder1  1.52567 -8.01539 -5.4459
LeftArm  -34.7833 -70.6935 -19.2248
LeftForeArm  -15.5847 -4.55266 -0.455904
LeftHand  -0.13294 10.3064 -1.72093
RightShoulder  0.621974 4.02518 -0.209559
RightArm  -36.8805 75.5014 14.5677
RightForeArm  -36.6519 -4.94289 0.408768
RightHand  0.0286038 1.18416 0.396406
LeftUpLeg  -11.2562 2.02108 -0.834123
LeftLeg  3.388 -15.2546 -0.0284772
LeftFoot  5.68332 0.221398 -1.71722
LeftToes  -4.03379e-008 1.61488e-010 -5.81581e-011
667
root  -59.9506 40.4545 -3.35957 -13.8471 -76.9512 15.0042
RightUpLeg  -13.5789 -8.68018 -4.68166
RightLeg  5.87801 11.1035 1.8658
RightFoot  6.31588 -0.0874489 0.842761
RightToes  -2.21189e-009 0 -3.6325e-017
Spine  17.6319 -2.29067 5.94172
Spine1  6.48887 -0.138668 -6.46546
HEad  -22.1637 -1.79797 -5.04741
LeftShoulder1  1.42392 -8.07851 -4.37271
LeftArm  -35.2167 -71.1616 -18.9483
LeftForeArm  -15.0941 -4.75729 -0.444071
LeftHand  -0.0981395 10.2844 -0.954587
RightShoulder  0.660729 3.926 0.519571
RightArm  -37.9871 74.9024 13.0283
RightForeArm  -35.5992 -4.92165 0.178573
RightHand  0.0570897 1.15031 0.898011
LeftUpLeg  -10.8703 1.57542 -1.02024
LeftLeg  2.1966 -16.0551 0.571135
LeftFoot  4.82028 0.484869 -3.62861
LeftToes  -4.03379e-008 1.61488e-010 -5.81581e-011
668
root  -59.8917 40.4578 -3.68492 -13.2149 -75.2145 14.5255
RightUpLeg  -13.6619 -9.20278 -4.95568
RightLeg  5.90722 9.82784 2.14312
RightFoot  6.50514 0.0186928 0.164515
RightToes  -2.21189e-009 0 -3.6325e-017
Spine  17.433 -2.44352 6.16722
Spine1  6.63741 -0.298958 -6.43185
HEad  -22.4529 -2.15643 -5.32819
LeftShoulder1  1.44314 -8.22686 -4.38261
LeftArm  -35.3069 -71.8946 -19.1618
LeftForeArm  -13.8743 -5.30953 -0.505615
LeftHand  -0.0977772 9.82126 -1.08816
RightShoulder  0.680475 3.78386 1.02272
RightArm  -38.0537 73.5024 12.3066
RightForeArm  -34.8027 -4.52165 -0.00809599
RightHand  0.0895268 1.72625 1.31198
LeftUpLeg  -11.1026 1.65388 -0.885759
LeftLeg  2.07681 -15.2155 0.437302
LeftFoot  3.2986 0.564654 -4.54492
LeftToes  -4.03379e-008 1.61488e-010 -5.81581e-011
669
root  -59.83 40.4705 -3.97441 -13.6748 -73.8976 15.0251
RightUpLeg  -13.6557 -9.68027 -5.32732
RightLeg  5.9114 9.02779 2.36259
RightFoot  6.60129 0.0723721 -0.171235
RightToes  -2.21189e-009 0 -3.6325e-017
Spine  17.5173 -2.44856 5.46191
Spine1  6.33774 -0.605419 -5.6579
HEad  -22.332 -1.67956 -5.16209
LeftShoulder1  1.43602 -7.98758 -4.60126
LeftArm  -34.3087 -72.1309 -20.0387
LeftForeArm  -14.1355 -5.68742 -0.827039
LeftHand  -0.0720123 9.44514 -0.560877
RightShoulder  0.702916 3.94014 1.1556
RightArm  -36.7126 72.2301 13.3847
RightForeArm  -34.5478 -3.3884 0.00271087
RightHand  0.0908125 2.03965 1.25168
LeftUpLeg  -11.0876 1.98337 -0.774017
LeftLeg  2.87191 -8.2112 0.319646
LeftFoot  1.71696 0.453341 -4.03145
LeftToes  -4.03379e-008 1.61488e-010 -5.81581e-011
670
root  -59.7438 40.5051 -4.23237 -14.6953 -72.7401 15.9608
RightUpLeg  -13.3727 -10.0597 -5.79097
RightLeg  5.54053 8.33282 2.37323
RightFoot  6.77382 0.0778237 -0.196283
RightToes  -2.21189e-009 0 -3.6325e-017
Spine  17.8036 -2.51459 4.94584
Spine1  5.74032 -0.729797 -5.69561
HEad  -21.5087 -0.581598 -4.69911
LeftShoulder1  1.45497 -7.90168 -4.89677
LeftArm  -32.7062 -72.262 -21.4193
LeftForeArm  -14.8065 -5.80122 -1.22555
LeftHand  -0.0668292 9.64028 -0.364764
RightShoulder  0.755081 3.67767 2.3611
RightArm  -34.7483 71.4575 14.5049
RightForeArm  -35.6588 -2.573 0.451711
RightHand  0.0752179 2.39667 0.92134
LeftUpLeg  -10.5035 2.91035 -0.580661
LeftLeg  4.09771 0.157915 0.0917985
LeftFoot  -0.0470737 0.272241 -2.7648
LeftToes  -4.03379e-008 1.61488e-010 -5.81581e-011
671
root  -59.6592 40.5129 -4.47977 -14.3992 -71.2293 15.5525
RightUpLeg  -13.0565 -10.2928 -6.08342
RightLeg  5.23361 7.00635 2.3012
RightFoot  6.71063 0.0461948 -0.000508981
RightToes  -2.21189e-009 0 -3.6325e-017
Spine  17.2682 -2.67909 4.2297
Spine1  6.21232 -1.18489 -4.8842
HEad  -21.3174 -0.284834 -4.28029
LeftShoulder1  1.46405 -7.73196 -5.20364
LeftArm  -31.2604 -71.9518 -23.3267
LeftForeArm  -14.785 -6.58811 -1.30769
LeftHand  -0.0563861 9.41731 -0.140103
RightShoulder  0.791591 3.87494 2.6132
RightArm  -33.2257 70.2898 16.2043
RightForeArm  -36.389 -1.73896 0.421755
RightHand  0.0626782 2.75556 0.696253
LeftUpLeg  -9.6628 4.36492 -0.172801
LeftLeg  5.6999 5.01988 -0.160782
LeftFoot  -1.94717 0.224502 -2.59419
LeftToes  -4.03379e-008 1.61488e-010 -5.81581e-011
672
root  -59.5581 40.5195 -4.69955 -14.0859 -69.5896 15.1557
RightUpLeg  -12.8847 -10.7761 -6.48598
RightLeg  5.20412 5.85852 2.45944
RightFoot  6.86252 0.112667 -0.409736
RightToes  -2.21189e-009 0 -3.6325e-017
Spine  16.7831 -2.9336 3.4942
Spine1  6.36283 -1.66359 -4.42087
HEad  -21.0136 0.473063 -4.73567
LeftShoulder1  1.45375 -7.68229 -5.16741
LeftArm  -29.2968 -71.3448 -26.2433
LeftForeArm  -14.2505 -7.58891 -1.24335
LeftHand  -0.053782 8.97256 -0.151143
RightShoulder  0.816128 3.69098 3.30796
RightArm  -30.6514 68.3652 20.3905
RightForeArm  -36.3458 1.07635 0.183027
RightHand  -0.0378461 3.25343 -0.771683
LeftUpLeg  -8.69987 5.72128 -0.0199825
LeftLeg  7.71803 6.66221 0.036979
LeftFoot  -3.49459 0.183685 -2.3656
LeftToes  -4.03379e-008 1.61488e-010 -5.81581e-011
673
root  -59.4439 40.5252 -4.90794 -12.9497 -67.4383 13.7484
RightUpLeg  -12.3352 -10.9678 -6.74313
RightLeg  4.89917 3.89018 2.32601
RightFoot  6.96458 0.113484 -0.402533
RightToes  -2.21189e-009 0 -3.6325e-017
Spine  16.2408 -3.34364 2.59894
Spine1  6.70379 -2.46581 -3.32771
HEad  -20.9643 1.15198 -5.10956
LeftShoulder1  1.46551 -7.38299 -5.6874
LeftArm  -26.8053 -70.7629 -29.9356
LeftForeArm  -14.7963 -9.20424 -1.32167
LeftHand  -0.0396614 8.919 0.285644
RightShoulder  0.844199 3.52018 4.08529
RightArm  -27.9478 65.2952 25.33
RightForeArm  -35.591 5.61372 -0.10153
RightHand  -0.148956 4.02864 -2.03669
LeftUpLeg  -7.36905 6.7794 0.329157
LeftLeg  9.60896 6.34681 0.514593
LeftFoot  -4.80682 0.140359 -1.95527
LeftToes  -4.03379e-008 1.61488e-010 -5.81581e-011
674
root  -59.3503 40.523 -5.07422 -12.0468 -65.1869 12.8538
RightUpLeg  -12.1992 -11.4948 -7.24145
RightLeg  5.03975 2.16354 2.45613
RightFoot  6.86964 0.12541 -0.460809
RightToes  -2.21189e-009 0 -3.6325e-017
Spine  15.4479 -3.54679 1.89977
Spine1  6.69565 -2.96388 -2.49972
HEad  -20.3782 1.41148 -5.58719
LeftShoulder1  1.52051 -7.24617 -6.46012
LeftArm  -23.1416 -69.1265 -36.8137
LeftForeArm  -14.4623 -12.5622 -1.50764
LeftHand  -0.0190168 7.83524 1.05354
RightShoulder  0.851346 3.02225 5.23276
RightArm  -25.3124 60.8192 30.2468
RightForeArm  -36.8719 11.0649 0.54971
RightHand  -0.428233 5.25859 -5.04073
LeftUpLeg  -5.859 7.63244 0.717883
LeftLeg  10.9227 5.88357 0.823475
LeftFoot  -5.85652 0.133129 -2.05875
LeftToes  -4.03379e-008 1.61488e-010 -5.81581e-011
675
root  -59.225 40.5381 -5.23313 -11.702 -63.0943 12.4879
RightUpLeg  -11.938 -11.878 -7.78981
RightLeg  4.8904 0.508508 2.38483
RightFoot  7.00402 0.126621 -0.487727
RightToes  -2.21189e-009 0 -3.6325e-017
Spine  15.0584 -3.72757 0.890987
Spine1  6.35514 -3.41483 -1.85044
HEad  -19.9556 1.56554 -5.72785
LeftShoulder1  1.49948 -6.4778 -7.45171
LeftArm  -20.2638 -66.7022 -44.3186
LeftForeArm  -11.588 -16.8431 -2.66258
LeftHand  -0.00615092 6.752 2.60258
RightShoulder  0.883774 2.5408 7.06723
RightArm  -27.6086 55.166 34.1132
RightForeArm  -28.8429 17.6433 2.24168
RightHand  -0.628272 6.91227 -6.20786
LeftUpLeg  -3.90148 8.70488 1.24796
LeftLeg  11.4918 6.90062 1.11168
LeftFoot  -6.39924 0.147375 -2.51924
LeftToes  -4.03379e-008 1.61488e-010 -5.81581e-011
676
root  -59.074 40.5631 -5.35449 -11.0018 -60.4875 11.69
RightUpLeg  -11.4165 -12.3975 -8.47714
RightLeg  4.57454 -1.52649 2.41991
RightFoot  7.2347 0.113855 -0.391796
RightToes  -2.21189e-009 0 -3.6325e-017
Spine  14.435 -3.84038 -0.0292002
Spine1  6.45402 -3.85572 -0.867505
HEad  -19.6932 1.64355 -6.55903
LeftShoulder1  1.49783 -5.48622 -9.29091
LeftArm  -16.1332 -63.8985 -52.0885
LeftForeArm  -8.49527 -21.0845 -4.52112
LeftHand  -0.0302205 5.12516 4.0178
RightShoulder  0.87827 1.56674 10.0545
RightArm  -28.5593 49.9552 35.6557
RightForeArm  -24.7933 22.3664 5.4622
RightHand  -1.12726 7.87288 -10.2227
LeftUpLeg  -1.77321 10.2512 2.08487
LeftLeg  11.5235 9.01742 1.35118
LeftFoot  -6.30509 0.129137 -2.07368
LeftToes  -4.03379e-008 1.61488e-010 -5.81581e-011
677
root  -58.906 40.5717 -5.45808 -10.139 -57.7461 10.7296
RightUpLeg  -10.8228 -12.82 -9.07266
RightLeg  4.12922 -3.88447 2.43405
RightFoot  7.48753 0.144834 -0.563296
RightToes  -2.21189e-009 0 -3.6325e-017
Spine  13.706 -3.84997 -0.900246
Spine1  6.6292 -4.24538 0.376242
HEad  -19.2762 1.65836 -7.49858
LeftShoulder1  1.53562 -4.69673 -11.5477
LeftArm  -11.1175 -59.3172 -58.7302
LeftForeArm  -5.71684 -26.048 -5.92824
LeftHand  -0.0539682 4.25974 3.51411
RightShoulder  0.810557 0.62755 12.7014
RightArm  -25.3458 43.8948 36.797
RightForeArm  -22.7558 26.4066 6.81622
RightHand  -1.35026 9.56545 -10.8266
LeftUpLeg  0.486912 12.7762 3.55562
LeftLeg  11.0648 10.9414 0.985549
LeftFoot  -6.24311 0.115724 -1.76018
LeftToes  -4.03379e-008 1.61488e-010 -5.81581e-011
